<?xml version="1.0" encoding="UTF-8"?>
<svg width="980px" height="180px" viewBox="0 0 980 180" version="1.1" xmlns="http://www.w3.org/2000/svg" xmlns:xlink="http://www.w3.org/1999/xlink">
    <title>banner</title>
    <g id="banner" stroke="none" stroke-width="1" fill="none" fill-rule="evenodd">
        <g id="Group" transform="translate(397.000000, 68.000000)" fill="#0A091A">
            <path d="M88.03,31.83 C90.27,31.83 92.05,31.255 93.37,30.105 C94.69,28.955 95.41,27.43 95.53,25.53 L95.53,25.53 L91.6,25.53 C91.5,26.51 91.14,27.26 90.52,27.78 C89.9,28.3 89.14,28.56 88.24,28.56 C87.02,28.56 86.075,28.155 85.405,27.345 C84.735,26.535 84.4,25.35 84.4,23.79 L84.4,23.79 L84.4,23.55 C84.4,22.07 84.74,20.92 85.42,20.1 C86.1,19.28 87.01,18.87 88.15,18.87 C89.97,18.87 91.03,19.76 91.33,21.54 L91.33,21.54 L95.44,21.54 C95.26,19.44 94.485,17.9 93.115,16.92 C91.745,15.94 90.06,15.45 88.06,15.45 C85.76,15.45 83.835,16.195 82.285,17.685 C80.735,19.175 79.96,21.15 79.96,23.61 L79.96,23.61 L79.96,23.85 C79.96,26.35 80.715,28.305 82.225,29.715 C83.735,31.125 85.67,31.83 88.03,31.83 Z M102.61,31.5 L102.61,23.64 C102.61,22.2 103.035,21.165 103.885,20.535 C104.735,19.905 106,19.6 107.68,19.62 L107.68,19.62 L107.68,15.57 C105.3,15.59 103.61,16.67 102.61,18.81 L102.61,18.81 L102.61,15.81 L98.26,15.81 L98.26,31.5 L102.61,31.5 Z M114.46,31.83 C116.56,31.83 118.14,31.09 119.2,29.61 L119.2,29.61 L119.2,31.5 L123.43,31.5 L123.43,21.27 C123.43,17.39 121.24,15.45 116.86,15.45 C114.84,15.45 113.19,15.9 111.91,16.8 C110.63,17.7 109.93,19.04 109.81,20.82 L109.81,20.82 L113.92,20.82 C114.12,19.34 115.01,18.6 116.59,18.6 C117.53,18.6 118.19,18.835 118.57,19.305 C118.95,19.775 119.14,20.5 119.14,21.48 L119.14,21.48 L119.14,22.11 L117.37,22.11 C111.93,22.11 109.21,23.79 109.21,27.15 C109.21,28.71 109.7,29.88 110.68,30.66 C111.66,31.44 112.92,31.83 114.46,31.83 Z M115.75,28.8 C114.23,28.8 113.47,28.17 113.47,26.91 C113.47,26.11 113.805,25.54 114.475,25.2 C115.145,24.86 116.14,24.69 117.46,24.69 L117.46,24.69 L119.14,24.69 L119.14,26.01 C119.14,26.87 118.82,27.55 118.18,28.05 C117.54,28.55 116.73,28.8 115.75,28.8 Z M132.19,31.5 L132.19,18.9 L135.61,18.9 L135.61,15.81 L132.19,15.81 L132.19,13.89 C132.19,12.51 132.84,11.82 134.14,11.82 C134.7,11.82 135.23,11.91 135.73,12.09 L135.73,12.09 L135.73,8.82 C135.07,8.62 134.32,8.52 133.48,8.52 C131.7,8.52 130.32,8.985 129.34,9.915 C128.36,10.845 127.87,12.21 127.87,14.01 L127.87,14.01 L127.87,15.81 L125.8,15.81 L125.8,18.9 L127.87,18.9 L127.87,31.5 L132.19,31.5 Z M144.16,31.8 C145.12,31.8 146,31.66 146.8,31.38 L146.8,31.38 L146.8,28.02 C146.32,28.22 145.77,28.32 145.15,28.32 C143.99,28.32 143.41,27.7 143.41,26.46 L143.41,26.46 L143.41,18.9 L146.71,18.9 L146.71,15.81 L143.41,15.81 L143.41,12.42 L139.09,12.42 L139.09,15.81 L137.08,15.81 L137.08,18.9 L139.09,18.9 L139.09,26.85 C139.09,28.47 139.52,29.7 140.38,30.54 C141.24,31.38 142.5,31.8 144.16,31.8 Z M154.96,31.83 C157.34,31.83 159,30.9 159.94,29.04 L159.94,29.04 L159.94,31.5 L164.26,31.5 L164.26,15.81 L159.94,15.81 L159.94,25.02 C159.94,26.14 159.635,26.995 159.025,27.585 C158.415,28.175 157.63,28.47 156.67,28.47 C154.85,28.47 153.94,27.42 153.94,25.32 L153.94,25.32 L153.94,15.81 L149.62,15.81 L149.62,25.92 C149.62,27.9 150.105,29.38 151.075,30.36 C152.045,31.34 153.34,31.83 154.96,31.83 Z M172.45,36.84 L172.45,29.1 C172.87,29.9 173.52,30.555 174.4,31.065 C175.28,31.575 176.3,31.83 177.46,31.83 C179.46,31.83 181.1,31.11 182.38,29.67 C183.66,28.23 184.3,26.25 184.3,23.73 L184.3,23.73 L184.3,23.49 C184.3,20.97 183.66,19 182.38,17.58 C181.1,16.16 179.46,15.45 177.46,15.45 C176.36,15.45 175.365,15.72 174.475,16.26 C173.585,16.8 172.91,17.47 172.45,18.27 L172.45,18.27 L172.45,15.81 L168.1,15.81 L168.1,36.84 L172.45,36.84 Z M176.17,28.44 C174.95,28.44 174,28.045 173.32,27.255 C172.64,26.465 172.3,25.3 172.3,23.76 L172.3,23.76 L172.3,23.52 C172.3,21.98 172.645,20.805 173.335,19.995 C174.025,19.185 174.96,18.78 176.14,18.78 C177.28,18.78 178.19,19.185 178.87,19.995 C179.55,20.805 179.89,21.98 179.89,23.52 L179.89,23.52 L179.89,23.76 C179.89,25.28 179.57,26.44 178.93,27.24 C178.29,28.04 177.37,28.44 176.17,28.44 Z" id="craftup" fill-rule="nonzero"></path>
            <path d="M48.125,0 C51.9219577,-6.97489806e-16 55,3.07804234 55,6.875 L55,37.125 C55,40.9219577 51.9219577,44 48.125,44 L6.875,44 C3.07804234,44 4.64993204e-16,40.9219577 0,37.125 L0,6.875 C-4.64993204e-16,3.07804234 3.07804234,6.97489806e-16 6.875,0 L48.125,0 Z M26.59525,9.96875 L10.65625,9.96875 L10.65625,33.56375 L17.45425,33.56375 L17.45425,25.21475 L24.74725,25.21475 L24.74725,20.23175 L17.45425,20.23175 L17.45425,15.21575 L26.59525,15.21575 L26.59525,9.96875 Z M39.74575,15.72175 L35.02675,15.72175 L35.81875,19.78075 L32.18875,18.03175 L31.06675,22.09075 L34.92775,22.51975 L31.99075,25.48975 L35.55475,28.03075 L37.36975,24.23575 L39.21775,28.03075 L42.74875,25.48975 L39.81175,22.51975 L43.70575,22.09075 L42.55075,18.03175 L38.95375,19.78075 L39.74575,15.72175 Z" id="Rectangle-2"></path>
        </g>
    </g>
</svg>